<svg width="1205" height="720" viewBox="0 0 1205 720" fill="none" xmlns="http://www.w3.org/2000/svg">
<rect width="1205" height="720" fill="black"/>
<path fill-rule="evenodd" clip-rule="evenodd" d="M603.266 311.533C605.571 311.533 607.834 311.35 610.041 310.998C609.392 318.196 606.99 324.889 603.266 330.645C599.541 324.888 597.139 318.196 596.491 310.998C598.697 311.35 600.96 311.533 603.266 311.533ZM582.63 306.222C586.862 308.564 591.534 310.207 596.491 310.998C596.373 309.695 596.313 308.376 596.313 307.043C596.313 305.137 596.436 303.259 596.674 301.418C598.822 301.085 601.024 300.912 603.266 300.912C605.508 300.912 607.709 301.085 609.858 301.418C610.095 303.259 610.218 305.137 610.218 307.043C610.218 308.376 610.158 309.695 610.041 310.998C614.997 310.208 619.67 308.564 623.902 306.222C637.05 313.497 645.953 327.509 645.953 343.599C645.953 345.841 645.78 348.042 645.447 350.191C643.606 350.428 641.728 350.551 639.822 350.551C624.493 350.551 611.016 342.624 603.266 330.645C595.516 342.624 582.038 350.551 566.71 350.551C564.803 350.551 562.926 350.428 561.084 350.191C560.751 348.042 560.578 345.841 560.578 343.599C560.578 327.508 569.481 313.497 582.63 306.222ZM560.859 263.924C560.674 265.539 560.579 267.181 560.579 268.845C560.579 284.936 569.481 298.947 582.63 306.222C586.914 303.852 591.649 302.196 596.674 301.418C597.521 294.854 599.831 288.749 603.266 283.44C606.701 288.749 609.01 294.854 609.858 301.418C614.882 302.196 619.618 303.852 623.902 306.222C637.051 298.947 645.954 284.936 645.954 268.845C645.954 267.181 645.858 265.539 645.673 263.924C666.935 266.782 683.33 284.998 683.33 307.043C683.33 329.165 666.819 347.432 645.447 350.191C642.278 370.637 624.6 386.287 603.266 386.287C581.932 386.287 564.253 370.637 561.084 350.191C539.712 347.432 523.201 329.165 523.201 307.043C523.201 284.998 539.597 266.782 560.859 263.924ZM560.859 263.924C563.299 242.667 581.355 226.158 603.266 226.158C625.178 226.158 643.233 242.667 645.673 263.924C643.759 263.667 641.806 263.534 639.822 263.534C624.493 263.534 611.016 271.462 603.266 283.44C595.516 271.462 582.038 263.534 566.71 263.534C564.726 263.534 562.773 263.667 560.859 263.924Z" fill="#D9D9D9"/>
<path fill-rule="evenodd" clip-rule="evenodd" d="M566.687 238.806C567.113 239.179 567.766 239.125 568.096 238.665C572.229 232.911 572.245 225.238 567.701 220.191C562.385 214.286 544.417 204.858 537.958 210.673C531.5 216.488 538.998 235.344 544.314 241.248C548.858 246.295 556.492 247.082 562.646 243.573C563.138 243.292 563.26 242.648 562.933 242.186L555.445 231.579C554.762 230.611 556.03 229.469 556.921 230.25L566.687 238.806Z" fill="#D9D9D9"/>
<path fill-rule="evenodd" clip-rule="evenodd" d="M643.327 242.186C643 242.648 643.122 243.292 643.613 243.573C649.768 247.082 657.402 246.296 661.946 241.249C667.262 235.344 674.76 216.489 668.302 210.674C661.844 204.859 643.875 214.286 638.559 220.191C634.015 225.238 634.031 232.911 638.163 238.665C638.494 239.125 639.147 239.179 639.573 238.806L649.339 230.249C650.23 229.469 651.498 230.611 650.815 231.578L643.327 242.186Z" fill="#D9D9D9"/>
<path fill-rule="evenodd" clip-rule="evenodd" d="M605.452 221.079C605.519 221.641 606.041 222.039 606.593 221.916C613.145 220.465 618.01 215.067 618.01 208.631C618.01 201.081 611.316 183 603.059 183C594.801 183 588.107 201.081 588.107 208.631C588.107 215.067 592.973 220.464 599.524 221.916C600.077 222.039 600.598 221.641 600.665 221.079L602.066 209.295C602.205 208.119 603.912 208.119 604.052 209.295L605.452 221.079Z" fill="#D9D9D9"/>
<path d="M509.9 441C511.6 433.4 513.35 426.65 515.15 420.75C516.95 414.817 518.867 409.733 520.9 405.5H526.1C528.167 409.733 530.083 414.817 531.85 420.75C533.65 426.65 535.4 433.4 537.1 441H532.05C531.717 439.533 531.383 438.1 531.05 436.7C530.717 435.267 530.4 433.867 530.1 432.5H516.9C516.6 433.867 516.283 435.267 515.95 436.7C515.617 438.1 515.283 439.533 514.95 441H509.9ZM518 428.1H529C528.133 424.7 527.25 421.517 526.35 418.55C525.45 415.583 524.5 412.85 523.5 410.35C522.5 412.85 521.55 415.583 520.65 418.55C519.75 421.517 518.867 424.7 518 428.1ZM542.356 436.6H547.956V416.8L543.406 416V413.1H552.206L552.706 416.75C553.906 415.65 555.173 414.7 556.506 413.9C557.873 413.067 559.323 412.667 560.856 412.7C562.289 412.733 563.623 413.067 564.856 413.7C566.089 414.3 567.023 415.183 567.656 416.35L564.156 419.3C563.623 418.633 562.956 418.133 562.156 417.8C561.356 417.467 560.523 417.3 559.656 417.3C558.556 417.3 557.456 417.683 556.356 418.45C555.256 419.217 554.089 420.2 552.856 421.4V421.6V436.6H563.406V441H542.356V436.6ZM573.362 436.6H578.962V416.8L574.412 416V413.1H583.212L583.712 416.75C584.912 415.65 586.178 414.7 587.512 413.9C588.878 413.067 590.328 412.667 591.862 412.7C593.295 412.733 594.628 413.067 595.862 413.7C597.095 414.3 598.028 415.183 598.662 416.35L595.162 419.3C594.628 418.633 593.962 418.133 593.162 417.8C592.362 417.467 591.528 417.3 590.662 417.3C589.562 417.3 588.462 417.683 587.362 418.45C586.262 419.217 585.095 420.2 583.862 421.4V421.6V436.6H594.412V441H573.362V436.6ZM616.518 410.7C615.451 410.7 614.518 410.317 613.718 409.55C612.918 408.783 612.518 407.833 612.518 406.7C612.518 405.6 612.918 404.667 613.718 403.9C614.518 403.1 615.451 402.7 616.518 402.7C617.651 402.7 618.601 403.1 619.368 403.9C620.134 404.667 620.518 405.6 620.518 406.7C620.518 407.833 620.134 408.783 619.368 409.55C618.601 410.317 617.651 410.7 616.518 410.7ZM605.268 436.6H614.718V419.95H607.968V415.55H619.618V436.6H627.668V441H605.268V436.6ZM648.423 441.8C645.79 441.8 643.457 441.25 641.423 440.15C639.39 439.017 637.79 437.383 636.623 435.25C635.49 433.083 634.923 430.45 634.923 427.35C634.923 422.65 636.073 419.033 638.373 416.5C640.673 413.967 643.773 412.7 647.673 412.7C650.107 412.7 652.157 413.217 653.823 414.25C655.49 415.283 656.79 416.667 657.723 418.4C658.657 420.1 659.223 421.983 659.423 424.05C659.623 426.083 659.44 428.1 658.873 430.1H639.823C640.057 431.9 640.607 433.35 641.473 434.45C642.34 435.517 643.423 436.3 644.723 436.8C646.023 437.267 647.423 437.5 648.923 437.5C649.69 437.5 650.773 437.383 652.173 437.15C653.573 436.917 655.107 436.433 656.773 435.7L658.423 439.5C656.19 440.533 654.29 441.167 652.723 441.4C651.157 441.667 649.723 441.8 648.423 441.8ZM639.623 425.85H655.123C655.257 424.283 655.04 422.85 654.473 421.55C653.94 420.217 653.073 419.15 651.873 418.35C650.707 417.517 649.257 417.1 647.523 417.1C645.857 417.1 644.423 417.517 643.223 418.35C642.057 419.15 641.157 420.217 640.523 421.55C639.923 422.85 639.623 424.283 639.623 425.85ZM667.179 437.5L670.229 434.15C671.563 435.05 672.979 435.817 674.479 436.45C676.013 437.05 677.513 437.35 678.979 437.35C680.946 437.35 682.429 437.033 683.429 436.4C684.429 435.767 684.929 434.95 684.929 433.95C684.929 432.983 684.529 432.167 683.729 431.5C682.929 430.833 681.896 430.25 680.629 429.75C679.363 429.217 678.013 428.7 676.579 428.2C675.179 427.7 673.846 427.133 672.579 426.5C671.313 425.833 670.279 425.033 669.479 424.1C668.679 423.133 668.279 421.95 668.279 420.55C668.279 419.283 668.613 418.167 669.279 417.2C669.946 416.233 670.813 415.417 671.879 414.75C672.946 414.083 674.096 413.583 675.329 413.25C676.596 412.917 677.829 412.75 679.029 412.75C681.096 412.75 682.896 413.1 684.429 413.8C685.996 414.467 687.529 415.433 689.029 416.7L686.029 419.9C684.896 419.033 683.779 418.367 682.679 417.9C681.613 417.4 680.396 417.15 679.029 417.15C677.563 417.15 676.229 417.467 675.029 418.1C673.863 418.7 673.246 419.483 673.179 420.45C673.146 421.183 673.513 421.833 674.279 422.4C675.079 422.933 676.113 423.467 677.379 424C678.646 424.5 679.996 425.033 681.429 425.6C682.863 426.167 684.213 426.817 685.479 427.55C686.746 428.283 687.779 429.167 688.579 430.2C689.413 431.233 689.829 432.467 689.829 433.9C689.829 436.267 688.879 438.167 686.979 439.6C685.113 441.033 682.446 441.75 678.979 441.75C676.746 441.75 674.579 441.35 672.479 440.55C670.379 439.717 668.613 438.7 667.179 437.5Z" fill="white"/>
<path d="M539.75 459.25H542.2C542.133 462.383 542.2 465.208 542.4 467.725C542.6 470.242 542.883 472.45 543.25 474.35L545.675 465.175H547.825L550.25 474.325C550.6 472.425 550.867 470.225 551.05 467.725C551.25 465.208 551.333 462.383 551.3 459.25H553.75C553.767 463.167 553.608 466.608 553.275 469.575C552.942 472.542 552.5 475.017 551.95 477H548.675L546.75 469.225L544.825 477H541.55C541 475.017 540.55 472.542 540.2 469.575C539.85 466.608 539.7 463.167 539.75 459.25ZM562.703 477.4C561.386 477.4 560.22 477.125 559.203 476.575C558.186 476.008 557.386 475.192 556.803 474.125C556.236 473.042 555.953 471.725 555.953 470.175C555.953 467.825 556.528 466.017 557.678 464.75C558.828 463.483 560.378 462.85 562.328 462.85C563.545 462.85 564.57 463.108 565.403 463.625C566.236 464.142 566.886 464.833 567.353 465.7C567.82 466.55 568.103 467.492 568.203 468.525C568.303 469.542 568.211 470.55 567.928 471.55H558.403C558.52 472.45 558.795 473.175 559.228 473.725C559.661 474.258 560.203 474.65 560.853 474.9C561.503 475.133 562.203 475.25 562.953 475.25C563.336 475.25 563.878 475.192 564.578 475.075C565.278 474.958 566.045 474.717 566.878 474.35L567.703 476.25C566.586 476.767 565.636 477.083 564.853 477.2C564.07 477.333 563.353 477.4 562.703 477.4ZM558.303 469.425H566.053C566.12 468.642 566.011 467.925 565.728 467.275C565.461 466.608 565.028 466.075 564.428 465.675C563.845 465.258 563.12 465.05 562.253 465.05C561.42 465.05 560.703 465.258 560.103 465.675C559.52 466.075 559.07 466.608 558.753 467.275C558.453 467.925 558.303 468.642 558.303 469.425ZM572.331 458.25H577.756V472.575C577.756 472.908 577.798 473.25 577.881 473.6C577.964 473.933 578.148 474.208 578.431 474.425C578.731 474.642 579.181 474.75 579.781 474.75H582.731V477H578.556C577.639 477 576.948 476.792 576.481 476.375C576.014 475.942 575.698 475.392 575.531 474.725C575.381 474.042 575.306 473.325 575.306 472.575V460.2L572.331 459.675V458.25ZM587.834 458.25H593.259V472.575C593.259 472.908 593.3 473.25 593.384 473.6C593.467 473.933 593.65 474.208 593.934 474.425C594.234 474.642 594.684 474.75 595.284 474.75H598.234V477H594.059C593.142 477 592.45 476.792 591.984 476.375C591.517 475.942 591.2 475.392 591.034 474.725C590.884 474.042 590.809 473.325 590.809 472.575V460.2L587.834 459.675V458.25ZM609.437 477.4C607.32 477.417 605.662 476.8 604.462 475.55C603.262 474.283 602.662 472.492 602.662 470.175C602.662 467.875 603.237 466.083 604.387 464.8C605.553 463.5 607.17 462.85 609.237 462.85C610.337 462.85 611.32 463.133 612.187 463.7C613.07 464.25 613.737 465.017 614.187 466L612.287 466.875C611.987 466.292 611.57 465.842 611.037 465.525C610.503 465.208 609.903 465.05 609.237 465.05C607.92 465.05 606.887 465.5 606.137 466.4C605.403 467.3 605.037 468.558 605.037 470.175C605.037 471.758 605.42 473 606.187 473.9C606.953 474.783 608.037 475.225 609.437 475.225C610.22 475.225 610.928 475.083 611.562 474.8C612.195 474.517 612.795 474.142 613.362 473.675L614.612 475.45C613.945 476.05 613.162 476.525 612.262 476.875C611.378 477.208 610.437 477.383 609.437 477.4ZM624.265 477.4C622.948 477.4 621.831 477.1 620.915 476.5C619.998 475.883 619.306 475.033 618.84 473.95C618.373 472.85 618.14 471.575 618.14 470.125C618.14 468.658 618.373 467.383 618.84 466.3C619.306 465.217 619.998 464.375 620.915 463.775C621.831 463.158 622.948 462.85 624.265 462.85C625.598 462.85 626.715 463.158 627.615 463.775C628.531 464.375 629.223 465.217 629.69 466.3C630.156 467.383 630.39 468.658 630.39 470.125C630.39 471.575 630.156 472.85 629.69 473.95C629.223 475.033 628.531 475.883 627.615 476.5C626.715 477.1 625.598 477.4 624.265 477.4ZM624.265 475.225C625.181 475.225 625.906 475.008 626.44 474.575C626.99 474.125 627.39 473.517 627.64 472.75C627.89 471.967 628.015 471.092 628.015 470.125C628.015 469.142 627.89 468.275 627.64 467.525C627.39 466.758 626.99 466.158 626.44 465.725C625.906 465.275 625.181 465.05 624.265 465.05C623.365 465.05 622.64 465.275 622.09 465.725C621.54 466.158 621.14 466.758 620.89 467.525C620.64 468.275 620.515 469.142 620.515 470.125C620.515 471.092 620.64 471.967 620.89 472.75C621.14 473.517 621.54 474.125 622.09 474.575C622.64 475.008 623.365 475.225 624.265 475.225ZM633.118 463.15H635.168L635.343 464.45C635.793 463.967 636.276 463.583 636.793 463.3C637.309 463 637.826 462.85 638.343 462.85C638.943 462.85 639.443 463 639.843 463.3C640.243 463.6 640.534 463.992 640.718 464.475C641.134 464.008 641.593 463.625 642.093 463.325C642.609 463.008 643.126 462.85 643.643 462.85C644.459 462.85 645.118 463.108 645.618 463.625C646.118 464.142 646.393 464.85 646.443 465.75C646.543 467.567 646.584 469.425 646.568 471.325C646.568 473.208 646.509 475.1 646.393 477H644.068C644.134 475.8 644.176 474.583 644.193 473.35C644.226 472.1 644.243 470.892 644.243 469.725C644.243 468.542 644.218 467.483 644.168 466.55C644.151 466.017 644.059 465.592 643.893 465.275C643.726 464.942 643.401 464.775 642.918 464.775C642.568 464.775 642.218 464.908 641.868 465.175C641.534 465.442 641.226 465.75 640.943 466.1L640.968 477H638.618L638.643 466.45C638.643 465.333 638.234 464.775 637.418 464.775C636.734 464.775 636.051 465.25 635.368 466.2C635.284 467.883 635.268 469.65 635.318 471.5C635.368 473.333 635.434 475.167 635.518 477H633.193C633.076 474.95 633.001 472.742 632.968 470.375C632.951 467.992 633.001 465.583 633.118 463.15ZM655.721 477.4C654.404 477.4 653.237 477.125 652.221 476.575C651.204 476.008 650.404 475.192 649.821 474.125C649.254 473.042 648.971 471.725 648.971 470.175C648.971 467.825 649.546 466.017 650.696 464.75C651.846 463.483 653.396 462.85 655.346 462.85C656.562 462.85 657.587 463.108 658.421 463.625C659.254 464.142 659.904 464.833 660.371 465.7C660.837 466.55 661.121 467.492 661.221 468.525C661.321 469.542 661.229 470.55 660.946 471.55H651.421C651.537 472.45 651.812 473.175 652.246 473.725C652.679 474.258 653.221 474.65 653.871 474.9C654.521 475.133 655.221 475.25 655.971 475.25C656.354 475.25 656.896 475.192 657.596 475.075C658.296 474.958 659.062 474.717 659.896 474.35L660.721 476.25C659.604 476.767 658.654 477.083 657.871 477.2C657.087 477.333 656.371 477.4 655.721 477.4ZM651.321 469.425H659.071C659.137 468.642 659.029 467.925 658.746 467.275C658.479 466.608 658.046 466.075 657.446 465.675C656.862 465.258 656.137 465.05 655.271 465.05C654.437 465.05 653.721 465.258 653.121 465.675C652.537 466.075 652.087 466.608 651.771 467.275C651.471 467.925 651.321 468.642 651.321 469.425Z" fill="white" fill-opacity="0.5"/>
</svg>
