<svg width="390" height="390" viewBox="0 0 390 390" fill="none" xmlns="http://www.w3.org/2000/svg">
<path fill-rule="evenodd" clip-rule="evenodd" d="M195.315 161.145C197.685 161.145 200.012 160.957 202.28 160.595C201.613 167.995 199.144 174.876 195.315 180.795C191.485 174.876 189.016 167.995 188.349 160.595C190.618 160.957 192.944 161.145 195.315 161.145ZM174.099 155.685C178.45 158.092 183.253 159.782 188.349 160.595C188.228 159.256 188.167 157.899 188.167 156.529C188.167 154.569 188.293 152.639 188.537 150.745C190.746 150.403 193.009 150.225 195.314 150.225C197.619 150.225 199.883 150.403 202.092 150.746C202.337 152.639 202.463 154.569 202.463 156.529C202.463 157.899 202.401 159.256 202.28 160.595C207.376 159.782 212.179 158.093 216.531 155.685C230.049 163.165 239.202 177.57 239.202 194.113C239.202 196.417 239.024 198.681 238.682 200.889C236.788 201.134 234.858 201.26 232.898 201.26C217.139 201.26 203.282 193.11 195.315 180.795C187.347 193.11 173.491 201.26 157.731 201.26C155.771 201.26 153.841 201.134 151.947 200.889C151.605 198.681 151.427 196.417 151.427 194.113C151.427 177.57 160.58 163.164 174.099 155.685ZM151.716 112.198C151.526 113.858 151.428 115.546 151.428 117.257C151.428 133.8 160.581 148.205 174.099 155.685C178.503 153.248 183.371 151.546 188.537 150.745C189.408 143.997 191.783 137.721 195.315 132.262C198.846 137.721 201.221 143.998 202.092 150.746C207.258 151.546 212.126 153.248 216.531 155.685C230.049 148.206 239.202 133.801 239.202 117.257C239.202 115.546 239.104 113.858 238.914 112.198C260.773 115.137 277.629 133.864 277.629 156.529C277.629 179.273 260.654 198.053 238.682 200.889C235.423 221.91 217.248 238 195.314 238C173.381 238 155.205 221.91 151.947 200.889C129.975 198.052 113 179.273 113 156.529C113 133.864 129.856 115.136 151.716 112.198ZM151.716 112.198C154.225 90.3429 172.788 73.3701 195.315 73.3701C217.842 73.3701 236.405 90.343 238.914 112.198C236.946 111.934 234.938 111.797 232.898 111.797C217.139 111.797 203.282 119.947 195.315 132.262C187.347 119.947 173.491 111.797 157.731 111.797C155.691 111.797 153.683 111.934 151.716 112.198Z" fill="#D9D9D9"/>
<path fill-rule="evenodd" clip-rule="evenodd" d="M157.729 86.3934C158.155 86.7665 158.808 86.7129 159.139 86.2536C163.405 80.3352 163.428 72.4316 158.75 67.2361C153.284 61.1654 134.811 51.4728 128.171 57.4511C121.531 63.4295 129.239 82.815 134.705 88.8856C139.383 94.0811 147.246 94.8849 153.578 91.2608C154.069 90.9795 154.191 90.3354 153.864 89.8729L146.012 78.7506C145.329 77.7832 146.598 76.6413 147.488 77.4217L157.729 86.3934Z" fill="#D9D9D9"/>
<path fill-rule="evenodd" clip-rule="evenodd" d="M236.483 89.8735C236.157 90.336 236.278 90.9801 236.769 91.2614C243.102 94.8859 250.965 94.0824 255.643 88.8867C261.109 82.8161 268.817 63.4307 262.178 57.4523C255.538 51.4739 237.064 61.1664 231.598 67.237C226.92 72.4323 226.943 80.3354 231.209 86.2538C231.54 86.7131 232.193 86.7668 232.619 86.3937L242.86 77.4219C243.75 76.6415 245.018 77.7833 244.335 78.7508L236.483 89.8735Z" fill="#D9D9D9"/>
<path fill-rule="evenodd" clip-rule="evenodd" d="M197.566 68.1784C197.632 68.7406 198.154 69.138 198.707 69.0165C205.457 67.5331 210.473 61.9778 210.473 55.3513C210.473 47.5895 203.591 29 195.101 29C186.612 29 179.729 47.5895 179.729 55.3513C179.729 61.9778 184.746 67.5332 191.496 69.0166C192.048 69.1381 192.57 68.7406 192.637 68.1784L194.108 55.7996C194.248 54.6237 195.954 54.6237 196.094 55.7996L197.566 68.1784Z" fill="#D9D9D9"/>
</svg>
